<svg width="14" height="16" viewBox="0 0 14 16" fill="none" xmlns="http://www.w3.org/2000/svg"><path d="M6.3296 1.3344C6.3296 2.0704 5.7328 2.6688 4.9952 2.6688C4.2576 2.6688 3.6608 2.072 3.6608 1.3344C3.6608 0.5968 4.2608 0 4.9968 0C5.7328 0 6.3296 0.5984 6.3296 1.3344ZM10.3936 12.256C10.136 12.1328 9.8288 12.2416 9.7056 12.4992C8.9888 13.9968 7.4528 14.9648 5.792 14.9648C3.4016 14.9648 1.4576 13.0208 1.4576 10.6304C1.4576 9.2736 2.0752 8.0192 3.1536 7.1904C3.3808 7.016 3.4224 6.6928 3.248 6.4656C3.0752 6.24 2.7504 6.1984 2.5248 6.3712C1.1888 7.3984 0.424004 8.9504 0.424004 10.632C0.424004 13.5904 2.832 16 5.792 16C7.8464 16 9.7488 14.8 10.6368 12.9456C10.76 12.688 10.6496 12.3792 10.3936 12.256ZM13.5024 12.6544L10.7216 8.1936C10.5888 7.9792 10.3264 7.9296 10.0448 7.9408H6.544C6.4016 7.9408 6.2864 7.9248 6.2864 7.9072L6.2896 7.8752V7.3072C6.2896 7.1648 6.312 7.0544 6.3408 7.056C6.3568 7.0576 6.3744 7.0592 6.3936 7.0592H9.448C9.792 7.0592 10.072 6.7808 10.072 6.4352C10.072 6.0912 9.7936 5.8112 9.448 5.8112H6.3936C6.3744 5.8112 6.3584 5.8128 6.3408 5.816C6.312 5.8176 6.2896 5.7072 6.2896 5.5648V4.1056C6.2896 3.5504 5.8384 3.1008 5.2848 3.1008H5.0064C4.4528 3.1008 4.0032 3.5504 4.0032 4.1056V9.1536C4.0032 9.7072 4.4528 10.1584 5.0064 10.1584H9.8144C9.9568 10.1584 10.1344 10.2544 10.2144 10.3728C10.6976 11.1024 12.2448 13.44 12.2448 13.44C12.4304 13.7392 12.8656 13.808 13.2128 13.5904C13.56 13.3744 13.6896 12.9552 13.5024 12.6544Z" fill="#DBDDE0"/></svg>
